<svg width="25" height="25" viewBox="0 0 25 25" fill="none" xmlns="http://www.w3.org/2000/svg">
<path fill-rule="evenodd" clip-rule="evenodd" d="M12.5 2.5C6.97715 2.5 2.5 6.97715 2.5 12.5C2.5 18.0228 6.97715 22.5 12.5 22.5C18.0228 22.5 22.5 18.0228 22.5 12.5C22.5 6.97715 18.0228 2.5 12.5 2.5ZM0 12.5C0 5.59644 5.59644 0 12.5 0C19.4036 0 25 5.59644 25 12.5C25 19.4036 19.4036 25 12.5 25C5.59644 25 0 19.4036 0 12.5ZM18.3305 8.44074C18.8464 8.89939 18.8929 9.68948 18.4343 10.2055L11.7676 17.7055C11.5304 17.9723 11.1904 18.125 10.8333 18.125C10.4763 18.125 10.1363 17.9723 9.89907 17.7055L6.56574 13.9555C6.10709 13.4395 6.15357 12.6494 6.66955 12.1907C7.18552 11.7321 7.97561 11.7786 8.43426 12.2945L10.8333 14.9935L16.5657 8.54455C17.0244 8.02857 17.8145 7.98209 18.3305 8.44074Z" fill="#39CF2C"/>
</svg>
