<svg width="21" height="21" viewBox="0 0 21 21" fill="none" xmlns="http://www.w3.org/2000/svg">
<path fill-rule="evenodd" clip-rule="evenodd" d="M5.20833 2.08333C5.20833 0.93274 6.14107 0 7.29167 0H13.5417C14.6923 0 15.625 0.93274 15.625 2.08333V4.16667H17.6976C17.704 4.16661 17.7105 4.16661 17.7169 4.16667H19.7917C20.367 4.16667 20.8333 4.63304 20.8333 5.20833C20.8333 5.78363 20.367 6.25 19.7917 6.25H18.6783L17.7748 18.8984C17.6969 19.9887 16.7897 20.8333 15.6968 20.8333H5.13658C4.04359 20.8333 3.13642 19.9887 3.05854 18.8984L2.15508 6.25H1.04167C0.46637 6.25 0 5.78363 0 5.20833C0 4.63304 0.46637 4.16667 1.04167 4.16667H3.1164C3.12286 4.16661 3.12931 4.16661 3.13575 4.16667H5.20833V2.08333ZM7.29167 4.16667H13.5417V2.08333H7.29167V4.16667ZM4.24373 6.25L5.13658 18.75H15.6968L16.5896 6.25H4.24373ZM8.33333 8.33333C8.90863 8.33333 9.375 8.7997 9.375 9.375V15.625C9.375 16.2003 8.90863 16.6667 8.33333 16.6667C7.75804 16.6667 7.29167 16.2003 7.29167 15.625V9.375C7.29167 8.7997 7.75804 8.33333 8.33333 8.33333ZM12.5 8.33333C13.0753 8.33333 13.5417 8.7997 13.5417 9.375V15.625C13.5417 16.2003 13.0753 16.6667 12.5 16.6667C11.9247 16.6667 11.4583 16.2003 11.4583 15.625V9.375C11.4583 8.7997 11.9247 8.33333 12.5 8.33333Z" fill="#EF1F1F"/>
</svg>
